<?xml version="1.0" encoding="UTF-8"?><svg xmlns="http://www.w3.org/2000/svg" xmlns:xlink="http://www.w3.org/1999/xlink" fill-opacity="1" color-rendering="auto" color-interpolation="auto" text-rendering="auto" stroke="black" stroke-linecap="square" width="813" stroke-miterlimit="10" shape-rendering="auto" stroke-opacity="1" fill="black" stroke-dasharray="none" font-weight="normal" stroke-width="1" height="560" font-family="'Dialog'" font-style="normal" stroke-linejoin="miter" font-size="12px" stroke-dashoffset="0" image-rendering="auto">
  <!--Generated by ySVG 2.6-->
  <defs id="genericDefs"/>
  <g>
    <defs id="defs1">
      <linearGradient x1="95" gradientUnits="userSpaceOnUse" x2="175" y1="314" y2="354" id="linearGradient1" spreadMethod="reflect">
        <stop stop-opacity="1" stop-color="rgb(232,238,247)" offset="0%"/>
        <stop stop-opacity="1" stop-color="rgb(183,201,227)" offset="100%"/>
      </linearGradient>
      <linearGradient x1="95" gradientUnits="userSpaceOnUse" x2="175" y1="594" y2="634" id="linearGradient2" spreadMethod="reflect">
        <stop stop-opacity="1" stop-color="rgb(232,238,247)" offset="0%"/>
        <stop stop-opacity="1" stop-color="rgb(183,201,227)" offset="100%"/>
      </linearGradient>
      <linearGradient x1="614" gradientUnits="userSpaceOnUse" x2="694" y1="594" y2="634" id="linearGradient3" spreadMethod="reflect">
        <stop stop-opacity="1" stop-color="rgb(232,238,247)" offset="0%"/>
        <stop stop-opacity="1" stop-color="rgb(183,201,227)" offset="100%"/>
      </linearGradient>
      <linearGradient x1="787" gradientUnits="userSpaceOnUse" x2="867" y1="594" y2="634" id="linearGradient4" spreadMethod="reflect">
        <stop stop-opacity="1" stop-color="rgb(232,238,247)" offset="0%"/>
        <stop stop-opacity="1" stop-color="rgb(183,201,227)" offset="100%"/>
      </linearGradient>
      <linearGradient x1="787" gradientUnits="userSpaceOnUse" x2="867" y1="664" y2="704" id="linearGradient5" spreadMethod="reflect">
        <stop stop-opacity="1" stop-color="rgb(232,238,247)" offset="0%"/>
        <stop stop-opacity="1" stop-color="rgb(183,201,227)" offset="100%"/>
      </linearGradient>
      <linearGradient x1="776" gradientUnits="userSpaceOnUse" x2="878" y1="524" y2="564" id="linearGradient6" spreadMethod="reflect">
        <stop stop-opacity="1" stop-color="rgb(232,238,247)" offset="0%"/>
        <stop stop-opacity="1" stop-color="rgb(183,201,227)" offset="100%"/>
      </linearGradient>
      <linearGradient x1="268" gradientUnits="userSpaceOnUse" x2="348" y1="664" y2="704" id="linearGradient7" spreadMethod="reflect">
        <stop stop-opacity="1" stop-color="rgb(232,238,247)" offset="0%"/>
        <stop stop-opacity="1" stop-color="rgb(183,201,227)" offset="100%"/>
      </linearGradient>
      <linearGradient x1="268" gradientUnits="userSpaceOnUse" x2="348" y1="524" y2="564" id="linearGradient8" spreadMethod="reflect">
        <stop stop-opacity="1" stop-color="rgb(232,238,247)" offset="0%"/>
        <stop stop-opacity="1" stop-color="rgb(183,201,227)" offset="100%"/>
      </linearGradient>
      <linearGradient x1="268" gradientUnits="userSpaceOnUse" x2="348" y1="594" y2="634" id="linearGradient9" spreadMethod="reflect">
        <stop stop-opacity="1" stop-color="rgb(232,238,247)" offset="0%"/>
        <stop stop-opacity="1" stop-color="rgb(183,201,227)" offset="100%"/>
      </linearGradient>
      <linearGradient x1="268" gradientUnits="userSpaceOnUse" x2="348" y1="384" y2="424" id="linearGradient10" spreadMethod="reflect">
        <stop stop-opacity="1" stop-color="rgb(232,238,247)" offset="0%"/>
        <stop stop-opacity="1" stop-color="rgb(183,201,227)" offset="100%"/>
      </linearGradient>
      <linearGradient x1="787" gradientUnits="userSpaceOnUse" x2="867" y1="314" y2="354" id="linearGradient11" spreadMethod="reflect">
        <stop stop-opacity="1" stop-color="rgb(232,238,247)" offset="0%"/>
        <stop stop-opacity="1" stop-color="rgb(183,201,227)" offset="100%"/>
      </linearGradient>
      <linearGradient x1="614" gradientUnits="userSpaceOnUse" x2="694" y1="314" y2="354" id="linearGradient12" spreadMethod="reflect">
        <stop stop-opacity="1" stop-color="rgb(232,238,247)" offset="0%"/>
        <stop stop-opacity="1" stop-color="rgb(183,201,227)" offset="100%"/>
      </linearGradient>
      <linearGradient x1="787" gradientUnits="userSpaceOnUse" x2="867" y1="384" y2="424" id="linearGradient13" spreadMethod="reflect">
        <stop stop-opacity="1" stop-color="rgb(232,238,247)" offset="0%"/>
        <stop stop-opacity="1" stop-color="rgb(183,201,227)" offset="100%"/>
      </linearGradient>
      <linearGradient x1="787" gradientUnits="userSpaceOnUse" x2="867" y1="454" y2="494" id="linearGradient14" spreadMethod="reflect">
        <stop stop-opacity="1" stop-color="rgb(232,238,247)" offset="0%"/>
        <stop stop-opacity="1" stop-color="rgb(183,201,227)" offset="100%"/>
      </linearGradient>
      <linearGradient x1="787" gradientUnits="userSpaceOnUse" x2="867" y1="244" y2="284" id="linearGradient15" spreadMethod="reflect">
        <stop stop-opacity="1" stop-color="rgb(232,238,247)" offset="0%"/>
        <stop stop-opacity="1" stop-color="rgb(183,201,227)" offset="100%"/>
      </linearGradient>
      <linearGradient x1="268" gradientUnits="userSpaceOnUse" x2="348" y1="314" y2="354" id="linearGradient16" spreadMethod="reflect">
        <stop stop-opacity="1" stop-color="rgb(232,238,247)" offset="0%"/>
        <stop stop-opacity="1" stop-color="rgb(183,201,227)" offset="100%"/>
      </linearGradient>
      <linearGradient x1="268" gradientUnits="userSpaceOnUse" x2="348" y1="454" y2="494" id="linearGradient17" spreadMethod="reflect">
        <stop stop-opacity="1" stop-color="rgb(232,238,247)" offset="0%"/>
        <stop stop-opacity="1" stop-color="rgb(183,201,227)" offset="100%"/>
      </linearGradient>
      <linearGradient x1="268" gradientUnits="userSpaceOnUse" x2="348" y1="734" y2="774" id="linearGradient18" spreadMethod="reflect">
        <stop stop-opacity="1" stop-color="rgb(232,238,247)" offset="0%"/>
        <stop stop-opacity="1" stop-color="rgb(183,201,227)" offset="100%"/>
      </linearGradient>
      <linearGradient x1="787" gradientUnits="userSpaceOnUse" x2="867" y1="734" y2="774" id="linearGradient19" spreadMethod="reflect">
        <stop stop-opacity="1" stop-color="rgb(232,238,247)" offset="0%"/>
        <stop stop-opacity="1" stop-color="rgb(183,201,227)" offset="100%"/>
      </linearGradient>
      <linearGradient x1="614" gradientUnits="userSpaceOnUse" x2="694" y1="489" y2="529" id="linearGradient20" spreadMethod="reflect">
        <stop stop-opacity="1" stop-color="rgb(232,238,247)" offset="0%"/>
        <stop stop-opacity="1" stop-color="rgb(183,201,227)" offset="100%"/>
      </linearGradient>
      <linearGradient x1="95" gradientUnits="userSpaceOnUse" x2="175" y1="414" y2="454" id="linearGradient21" spreadMethod="reflect">
        <stop stop-opacity="1" stop-color="rgb(232,238,247)" offset="0%"/>
        <stop stop-opacity="1" stop-color="rgb(183,201,227)" offset="100%"/>
      </linearGradient>
      <clipPath clipPathUnits="userSpaceOnUse" id="clipPath1">
        <path d="M0 0 L813 0 L813 560 L0 560 L0 0 Z"/>
      </clipPath>
      <clipPath clipPathUnits="userSpaceOnUse" id="clipPath2">
        <path d="M80 229 L893 229 L893 789 L80 789 L80 229 Z"/>
      </clipPath>
    </defs>
    <g fill="white" text-rendering="geometricPrecision" shape-rendering="geometricPrecision" transform="translate(-80,-229)" stroke="white">
      <rect x="80" width="813" height="560" y="229" clip-path="url(#clipPath2)" stroke="none"/>
    </g>
    <g fill="url(#linearGradient1)" text-rendering="geometricPrecision" shape-rendering="geometricPrecision" transform="matrix(1,0,0,1,-80,-229)" stroke="url(#linearGradient1)">
      <path d="M95 314 L175 314 L175 354 L95 354 Z" stroke="none" clip-path="url(#clipPath2)"/>
    </g>
    <g text-rendering="geometricPrecision" stroke-miterlimit="1.45" shape-rendering="geometricPrecision" transform="matrix(1,0,0,1,-80,-229)" stroke-linecap="butt">
      <path fill="none" d="M95 314 L175 314 L175 354 L95 354 Z" clip-path="url(#clipPath2)"/>
      <text x="121.9863" xml:space="preserve" y="338.5352" clip-path="url(#clipPath2)" font-family="sans-serif" stroke="none">User</text>
    </g>
    <g fill="url(#linearGradient2)" text-rendering="geometricPrecision" shape-rendering="geometricPrecision" transform="matrix(1,0,0,1,-80,-229)" stroke="url(#linearGradient2)">
      <path d="M95 594 L175 594 L175 634 L95 634 Z" stroke="none" clip-path="url(#clipPath2)"/>
    </g>
    <g text-rendering="geometricPrecision" stroke-miterlimit="1.45" shape-rendering="geometricPrecision" transform="matrix(1,0,0,1,-80,-229)" stroke-linecap="butt">
      <path fill="none" d="M95 594 L175 594 L175 634 L95 634 Z" clip-path="url(#clipPath2)"/>
      <text x="115.9072" xml:space="preserve" y="618.5352" clip-path="url(#clipPath2)" font-family="sans-serif" stroke="none">Device</text>
    </g>
    <g fill="url(#linearGradient3)" text-rendering="geometricPrecision" shape-rendering="geometricPrecision" transform="matrix(1,0,0,1,-80,-229)" stroke="url(#linearGradient3)">
      <path d="M614 594 L694 594 L694 634 L614 634 Z" stroke="none" clip-path="url(#clipPath2)"/>
    </g>
    <g text-rendering="geometricPrecision" stroke-miterlimit="1.45" shape-rendering="geometricPrecision" transform="matrix(1,0,0,1,-80,-229)" stroke-linecap="butt">
      <path fill="none" d="M614 594 L694 594 L694 634 L614 634 Z" clip-path="url(#clipPath2)"/>
      <text x="628.8984" xml:space="preserve" y="618.5352" clip-path="url(#clipPath2)" font-family="sans-serif" stroke="none">Software</text>
    </g>
    <g fill="url(#linearGradient4)" text-rendering="geometricPrecision" shape-rendering="geometricPrecision" transform="matrix(1,0,0,1,-80,-229)" stroke="url(#linearGradient4)">
      <ellipse rx="40" ry="20" clip-path="url(#clipPath2)" cx="827" cy="614" stroke="none"/>
    </g>
    <g text-rendering="geometricPrecision" stroke-miterlimit="1.45" shape-rendering="geometricPrecision" transform="matrix(1,0,0,1,-80,-229)" stroke-linecap="butt">
      <ellipse rx="40" fill="none" ry="20" clip-path="url(#clipPath2)" cx="827" cy="614"/>
      <text x="810.3096" xml:space="preserve" y="618.5352" clip-path="url(#clipPath2)" font-family="sans-serif" stroke="none">Name</text>
    </g>
    <g fill="url(#linearGradient5)" text-rendering="geometricPrecision" shape-rendering="geometricPrecision" transform="matrix(1,0,0,1,-80,-229)" stroke="url(#linearGradient5)">
      <ellipse rx="40" ry="20" clip-path="url(#clipPath2)" cx="827" cy="684" stroke="none"/>
    </g>
    <g text-rendering="geometricPrecision" stroke-miterlimit="1.45" shape-rendering="geometricPrecision" transform="matrix(1,0,0,1,-80,-229)" stroke-linecap="butt">
      <ellipse rx="40" fill="none" ry="20" clip-path="url(#clipPath2)" cx="827" cy="684"/>
      <text x="805.0771" xml:space="preserve" y="688.5352" clip-path="url(#clipPath2)" font-family="sans-serif" stroke="none">Version</text>
    </g>
    <g fill="url(#linearGradient6)" text-rendering="geometricPrecision" shape-rendering="geometricPrecision" transform="matrix(1,0,0,1,-80,-229)" stroke="url(#linearGradient6)">
      <ellipse rx="51" ry="20" clip-path="url(#clipPath2)" cx="827" cy="544" stroke="none"/>
    </g>
    <g text-rendering="geometricPrecision" stroke-miterlimit="1.45" shape-rendering="geometricPrecision" transform="matrix(1,0,0,1,-80,-229)" stroke-linecap="butt">
      <ellipse rx="51" fill="none" ry="20" clip-path="url(#clipPath2)" cx="827" cy="544"/>
      <text x="786.8135" xml:space="preserve" y="548.5352" clip-path="url(#clipPath2)" font-family="sans-serif" stroke="none">DownloadURL</text>
    </g>
    <g fill="url(#linearGradient7)" text-rendering="geometricPrecision" shape-rendering="geometricPrecision" transform="matrix(1,0,0,1,-80,-229)" stroke="url(#linearGradient7)">
      <ellipse rx="40" ry="20" clip-path="url(#clipPath2)" cx="308" cy="684" stroke="none"/>
    </g>
    <g text-rendering="geometricPrecision" stroke-miterlimit="1.45" shape-rendering="geometricPrecision" transform="matrix(1,0,0,1,-80,-229)" stroke-linecap="butt">
      <ellipse rx="40" fill="none" ry="20" clip-path="url(#clipPath2)" cx="308" cy="684"/>
      <text x="287.0938" xml:space="preserve" y="688.5352" clip-path="url(#clipPath2)" font-family="sans-serif" stroke="none">Vendor</text>
    </g>
    <g fill="url(#linearGradient8)" text-rendering="geometricPrecision" shape-rendering="geometricPrecision" transform="matrix(1,0,0,1,-80,-229)" stroke="url(#linearGradient8)">
      <ellipse rx="40" ry="20" clip-path="url(#clipPath2)" cx="308" cy="544" stroke="none"/>
    </g>
    <g text-rendering="geometricPrecision" stroke-miterlimit="1.45" shape-rendering="geometricPrecision" transform="matrix(1,0,0,1,-80,-229)" stroke-linecap="butt">
      <ellipse rx="40" fill="none" ry="20" clip-path="url(#clipPath2)" cx="308" cy="544"/>
      <text x="277.0684" xml:space="preserve" y="548.5352" clip-path="url(#clipPath2)" font-family="sans-serif" stroke="none">InstallDate</text>
    </g>
    <g fill="url(#linearGradient9)" text-rendering="geometricPrecision" shape-rendering="geometricPrecision" transform="matrix(1,0,0,1,-80,-229)" stroke="url(#linearGradient9)">
      <path d="M308 594 L348 614 L308 634 L268 614 Z" stroke="none" clip-path="url(#clipPath2)"/>
    </g>
    <g text-rendering="geometricPrecision" stroke-miterlimit="1.45" shape-rendering="geometricPrecision" transform="matrix(1,0,0,1,-80,-229)" stroke-linecap="butt">
      <path fill="none" d="M308 594 L348 614 L308 634 L268 614 Z" clip-path="url(#clipPath2)"/>
      <text x="287.6738" xml:space="preserve" y="618.5352" clip-path="url(#clipPath2)" font-family="sans-serif" stroke="none">enthält</text>
    </g>
    <g fill="url(#linearGradient10)" text-rendering="geometricPrecision" shape-rendering="geometricPrecision" transform="matrix(1,0,0,1,-80,-229)" stroke="url(#linearGradient10)">
      <ellipse rx="40" ry="20" clip-path="url(#clipPath2)" cx="308" cy="404" stroke="none"/>
    </g>
    <g text-rendering="geometricPrecision" stroke-miterlimit="1.45" shape-rendering="geometricPrecision" transform="matrix(1,0,0,1,-80,-229)" stroke-linecap="butt">
      <ellipse rx="40" fill="none" ry="20" clip-path="url(#clipPath2)" cx="308" cy="404"/>
      <text x="291.3096" xml:space="preserve" y="408.5352" clip-path="url(#clipPath2)" font-family="sans-serif" stroke="none">Name</text>
    </g>
    <g fill="url(#linearGradient11)" text-rendering="geometricPrecision" shape-rendering="geometricPrecision" transform="matrix(1,0,0,1,-80,-229)" stroke="url(#linearGradient11)">
      <ellipse rx="40" ry="20" clip-path="url(#clipPath2)" cx="827" cy="334" stroke="none"/>
    </g>
    <g text-rendering="geometricPrecision" stroke-miterlimit="1.45" shape-rendering="geometricPrecision" transform="matrix(1,0,0,1,-80,-229)" stroke-linecap="butt">
      <ellipse rx="40" fill="none" ry="20" clip-path="url(#clipPath2)" cx="827" cy="334"/>
      <text x="821.4893" xml:space="preserve" y="338.5352" clip-path="url(#clipPath2)" font-family="sans-serif" stroke="none">id</text>
    </g>
    <g fill="url(#linearGradient12)" text-rendering="geometricPrecision" shape-rendering="geometricPrecision" transform="matrix(1,0,0,1,-80,-229)" stroke="url(#linearGradient12)">
      <path d="M614 314 L694 314 L694 354 L614 354 Z" stroke="none" clip-path="url(#clipPath2)"/>
    </g>
    <g text-rendering="geometricPrecision" stroke-miterlimit="1.45" shape-rendering="geometricPrecision" transform="matrix(1,0,0,1,-80,-229)" stroke-linecap="butt">
      <path fill="none" d="M614 314 L694 314 L694 354 L614 354 Z" clip-path="url(#clipPath2)"/>
      <text x="636.3047" xml:space="preserve" y="338.5352" clip-path="url(#clipPath2)" font-family="sans-serif" stroke="none">Ticket</text>
    </g>
    <g fill="url(#linearGradient13)" text-rendering="geometricPrecision" shape-rendering="geometricPrecision" transform="matrix(1,0,0,1,-80,-229)" stroke="url(#linearGradient13)">
      <ellipse rx="40" ry="20" clip-path="url(#clipPath2)" cx="827" cy="404" stroke="none"/>
    </g>
    <g text-rendering="geometricPrecision" stroke-miterlimit="1.45" shape-rendering="geometricPrecision" transform="matrix(1,0,0,1,-80,-229)" stroke-linecap="butt">
      <ellipse rx="40" fill="none" ry="20" clip-path="url(#clipPath2)" cx="827" cy="404"/>
      <text x="788.9551" xml:space="preserve" y="408.5352" clip-path="url(#clipPath2)" font-family="sans-serif" stroke="none">CreationDate</text>
    </g>
    <g fill="url(#linearGradient14)" text-rendering="geometricPrecision" shape-rendering="geometricPrecision" transform="matrix(1,0,0,1,-80,-229)" stroke="url(#linearGradient14)">
      <ellipse rx="40" ry="20" clip-path="url(#clipPath2)" cx="827" cy="474" stroke="none"/>
    </g>
    <g text-rendering="geometricPrecision" stroke-miterlimit="1.45" shape-rendering="geometricPrecision" transform="matrix(1,0,0,1,-80,-229)" stroke-linecap="butt">
      <ellipse rx="40" fill="none" ry="20" clip-path="url(#clipPath2)" cx="827" cy="474"/>
      <text x="794.0176" xml:space="preserve" y="478.5352" clip-path="url(#clipPath2)" font-family="sans-serif" stroke="none">DetailsText</text>
    </g>
    <g fill="url(#linearGradient15)" text-rendering="geometricPrecision" shape-rendering="geometricPrecision" transform="matrix(1,0,0,1,-80,-229)" stroke="url(#linearGradient15)">
      <ellipse rx="40" ry="20" clip-path="url(#clipPath2)" cx="827" cy="264" stroke="none"/>
    </g>
    <g text-rendering="geometricPrecision" stroke-miterlimit="1.45" shape-rendering="geometricPrecision" transform="matrix(1,0,0,1,-80,-229)" stroke-linecap="butt">
      <ellipse rx="40" fill="none" ry="20" clip-path="url(#clipPath2)" cx="827" cy="264"/>
      <text x="791.0469" xml:space="preserve" y="268.5352" clip-path="url(#clipPath2)" font-family="sans-serif" stroke="none">SupportText</text>
    </g>
    <g fill="url(#linearGradient16)" text-rendering="geometricPrecision" shape-rendering="geometricPrecision" transform="matrix(1,0,0,1,-80,-229)" stroke="url(#linearGradient16)">
      <path d="M308 314 L348 334 L308 354 L268 334 Z" stroke="none" clip-path="url(#clipPath2)"/>
    </g>
    <g text-rendering="geometricPrecision" stroke-miterlimit="1.45" shape-rendering="geometricPrecision" transform="matrix(1,0,0,1,-80,-229)" stroke-linecap="butt">
      <path fill="none" d="M308 314 L348 334 L308 354 L268 334 Z" clip-path="url(#clipPath2)"/>
      <text x="288.1602" xml:space="preserve" y="338.5352" clip-path="url(#clipPath2)" font-family="sans-serif" stroke="none">besitzt</text>
    </g>
    <g fill="url(#linearGradient17)" text-rendering="geometricPrecision" shape-rendering="geometricPrecision" transform="matrix(1,0,0,1,-80,-229)" stroke="url(#linearGradient17)">
      <ellipse rx="40" ry="20" clip-path="url(#clipPath2)" cx="308" cy="474" stroke="none"/>
    </g>
    <g text-rendering="geometricPrecision" stroke-miterlimit="1.45" shape-rendering="geometricPrecision" transform="matrix(1,0,0,1,-80,-229)" stroke-linecap="butt">
      <ellipse rx="40" fill="none" ry="20" clip-path="url(#clipPath2)" cx="308" cy="474"/>
      <text x="302.4893" xml:space="preserve" y="478.5352" clip-path="url(#clipPath2)" font-family="sans-serif" stroke="none">id</text>
    </g>
    <g fill="url(#linearGradient18)" text-rendering="geometricPrecision" shape-rendering="geometricPrecision" transform="matrix(1,0,0,1,-80,-229)" stroke="url(#linearGradient18)">
      <ellipse rx="40" ry="20" clip-path="url(#clipPath2)" cx="308" cy="754" stroke="none"/>
    </g>
    <g text-rendering="geometricPrecision" stroke-miterlimit="1.45" shape-rendering="geometricPrecision" transform="matrix(1,0,0,1,-80,-229)" stroke-linecap="butt">
      <ellipse rx="40" fill="none" ry="20" clip-path="url(#clipPath2)" cx="308" cy="754"/>
      <text x="302.4893" xml:space="preserve" y="758.5352" clip-path="url(#clipPath2)" font-family="sans-serif" stroke="none">id</text>
    </g>
    <g fill="url(#linearGradient19)" text-rendering="geometricPrecision" shape-rendering="geometricPrecision" transform="matrix(1,0,0,1,-80,-229)" stroke="url(#linearGradient19)">
      <ellipse rx="40" ry="20" clip-path="url(#clipPath2)" cx="827" cy="754" stroke="none"/>
    </g>
    <g text-rendering="geometricPrecision" stroke-miterlimit="1.45" shape-rendering="geometricPrecision" transform="matrix(1,0,0,1,-80,-229)" stroke-linecap="butt">
      <ellipse rx="40" fill="none" ry="20" clip-path="url(#clipPath2)" cx="827" cy="754"/>
      <text x="821.4893" xml:space="preserve" y="758.5352" clip-path="url(#clipPath2)" font-family="sans-serif" stroke="none">id</text>
    </g>
    <g fill="url(#linearGradient20)" text-rendering="geometricPrecision" shape-rendering="geometricPrecision" transform="matrix(1,0,0,1,-80,-229)" stroke="url(#linearGradient20)">
      <path d="M654 489 L694 509 L654 529 L614 509 Z" stroke="none" clip-path="url(#clipPath2)"/>
    </g>
    <g text-rendering="geometricPrecision" stroke-miterlimit="1.45" shape-rendering="geometricPrecision" transform="matrix(1,0,0,1,-80,-229)" stroke-linecap="butt">
      <path fill="none" d="M654 489 L694 509 L654 529 L614 509 Z" clip-path="url(#clipPath2)"/>
      <text x="633.791" xml:space="preserve" y="513.5352" clip-path="url(#clipPath2)" font-family="sans-serif" stroke="none">betrifft</text>
    </g>
    <g fill="url(#linearGradient21)" text-rendering="geometricPrecision" shape-rendering="geometricPrecision" transform="matrix(1,0,0,1,-80,-229)" stroke="url(#linearGradient21)">
      <path d="M135 414 L175 434 L135 454 L95 434 Z" stroke="none" clip-path="url(#clipPath2)"/>
    </g>
    <g text-rendering="geometricPrecision" stroke-miterlimit="1.45" shape-rendering="geometricPrecision" transform="matrix(1,0,0,1,-80,-229)" stroke-linecap="butt">
      <path fill="none" d="M135 414 L175 434 L135 454 L95 434 Z" clip-path="url(#clipPath2)"/>
      <text x="115.1602" xml:space="preserve" y="438.5352" clip-path="url(#clipPath2)" font-family="sans-serif" stroke="none">besitzt</text>
    </g>
    <g text-rendering="geometricPrecision" stroke-miterlimit="1.45" shape-rendering="geometricPrecision" transform="matrix(1,0,0,1,-80,-229)" stroke-linecap="butt">
      <path fill="none" d="M693.9978 614 L779.0279 614" clip-path="url(#clipPath2)"/>
    </g>
    <g text-rendering="geometricPrecision" stroke-miterlimit="1.45" shape-rendering="geometricPrecision" transform="matrix(1,0,0,1,-80,-229)" stroke-linecap="butt">
      <path d="M787.0279 614 L775.0279 609 L778.0279 614 L775.0279 619 Z" stroke="none" clip-path="url(#clipPath2)"/>
      <path fill="none" d="M693.9978 630.1841 L788.5091 668.4257" clip-path="url(#clipPath2)"/>
      <path d="M795.925 671.4263 L786.6766 662.2904 L787.5822 668.0506 L782.9257 671.5603 Z" clip-path="url(#clipPath2)" stroke="none"/>
      <path fill="none" d="M693.9978 597.8159 L784.093 561.3612" clip-path="url(#clipPath2)"/>
      <path d="M791.5089 558.3605 L778.5096 558.2266 L783.166 561.7363 L782.2604 567.4965 Z" clip-path="url(#clipPath2)" stroke="none"/>
      <path fill="none" d="M174.9978 630.1841 L269.5091 668.4257" clip-path="url(#clipPath2)"/>
      <path d="M276.925 671.4263 L267.6765 662.2903 L268.5821 668.0506 L263.9257 671.5603 Z" clip-path="url(#clipPath2)" stroke="none"/>
      <path fill="none" d="M174.9978 597.8159 L269.5091 559.5743" clip-path="url(#clipPath2)"/>
      <path d="M276.925 556.5737 L263.9257 556.4397 L268.5821 559.9494 L267.6765 565.7097 Z" clip-path="url(#clipPath2)" stroke="none"/>
      <path fill="none" d="M174.9978 614 L260.0279 614" clip-path="url(#clipPath2)"/>
      <path d="M268.0279 614 L256.0279 609 L259.0279 614 L256.0279 619 Z" clip-path="url(#clipPath2)" stroke="none"/>
      <path fill="none" d="M347.9978 614 L605.9941 614" clip-path="url(#clipPath2)"/>
      <path d="M613.9941 614 L601.9941 609 L604.9941 614 L601.9941 619 Z" clip-path="url(#clipPath2)" stroke="none"/>
      <path fill="none" d="M174.9978 350.1841 L269.5091 388.4257" clip-path="url(#clipPath2)"/>
      <path d="M276.925 391.4263 L267.6765 382.2904 L268.5821 388.0506 L263.9257 391.5603 Z" clip-path="url(#clipPath2)" stroke="none"/>
      <path fill="none" d="M693.9978 334 L779.0279 334" clip-path="url(#clipPath2)"/>
      <path d="M787.0279 334 L775.0279 329 L778.0279 334 L775.0279 339 Z" clip-path="url(#clipPath2)" stroke="none"/>
      <path fill="none" d="M693.9978 350.1841 L788.5091 388.4257" clip-path="url(#clipPath2)"/>
      <path d="M795.925 391.4263 L786.6765 382.2904 L787.5821 388.0506 L782.9257 391.5603 Z" clip-path="url(#clipPath2)" stroke="none"/>
      <path fill="none" d="M678.7294 354.0122 L799.7496 451.9477" clip-path="url(#clipPath2)"/>
      <path d="M805.9684 456.9803 L799.7856 445.5447 L798.9723 451.3186 L793.4949 453.3182 Z" clip-path="url(#clipPath2)" stroke="none"/>
      <path fill="none" d="M693.9978 317.8159 L788.5091 279.5743" clip-path="url(#clipPath2)"/>
      <path d="M795.925 276.5737 L782.9257 276.4397 L787.5821 279.9494 L786.6765 285.7096 Z" clip-path="url(#clipPath2)" stroke="none"/>
      <path fill="none" d="M174.9978 334 L260.0279 334" clip-path="url(#clipPath2)"/>
      <path d="M268.0279 334 L256.0279 329 L259.0279 334 L256.0279 339 Z" clip-path="url(#clipPath2)" stroke="none"/>
      <path fill="none" d="M347.9978 334 L605.9941 334" clip-path="url(#clipPath2)"/>
      <path d="M613.9941 334 L601.9941 329 L604.9941 334 L601.9941 339 Z" clip-path="url(#clipPath2)" stroke="none"/>
      <path fill="none" d="M159.7294 354.0122 L280.7497 451.9477" clip-path="url(#clipPath2)"/>
      <path d="M286.9684 456.9803 L280.7856 445.5447 L279.9723 451.3186 L274.4949 453.3181 Z" clip-path="url(#clipPath2)" stroke="none"/>
      <path fill="none" d="M159.7294 634.0122 L280.7497 731.9477" clip-path="url(#clipPath2)"/>
      <path d="M286.9685 736.9802 L280.7856 725.5447 L279.9723 731.3186 L274.4949 733.3182 Z" clip-path="url(#clipPath2)" stroke="none"/>
      <path fill="none" d="M678.7294 634.0122 L799.7496 731.9477" clip-path="url(#clipPath2)"/>
      <path d="M805.9684 736.9802 L799.7856 725.5447 L798.9723 731.3186 L793.4949 733.3182 Z" clip-path="url(#clipPath2)" stroke="none"/>
      <path fill="none" d="M654 354.0378 L654 480.9866" clip-path="url(#clipPath2)"/>
      <path d="M654 488.9866 L659 476.9866 L654 479.9866 L649 476.9866 Z" clip-path="url(#clipPath2)" stroke="none"/>
      <path fill="none" d="M613.9916 509 L135 509 L135 585.9792" clip-path="url(#clipPath2)"/>
      <path d="M135 593.9792 L140 581.9792 L135 584.9792 L130 581.9792 Z" clip-path="url(#clipPath2)" stroke="none"/>
      <path fill="none" d="M135 353.9707 L135 406.0317" clip-path="url(#clipPath2)"/>
      <path d="M135 414.0317 L140 402.0317 L135 405.0317 L130 402.0317 Z" clip-path="url(#clipPath2)" stroke="none"/>
      <path fill="none" d="M135 453.9951 L135 586.0385" clip-path="url(#clipPath2)"/>
      <path d="M135 594.0385 L140 582.0385 L135 585.0385 L130 582.0385 Z" clip-path="url(#clipPath2)" stroke="none"/>
    </g>
  </g>
</svg>
