<?xml version="1.0" encoding="UTF-8"?><svg xmlns="http://www.w3.org/2000/svg" xmlns:xlink="http://www.w3.org/1999/xlink" fill-opacity="1" color-rendering="auto" color-interpolation="auto" text-rendering="auto" stroke="black" stroke-linecap="square" width="675" stroke-miterlimit="10" shape-rendering="auto" stroke-opacity="1" fill="black" stroke-dasharray="none" font-weight="normal" stroke-width="1" height="555" font-family="'Dialog'" font-style="normal" stroke-linejoin="miter" font-size="12px" stroke-dashoffset="0" image-rendering="auto">
  <!--Generated by ySVG 2.6-->
  <defs id="genericDefs"/>
  <g>
    <defs id="defs1">
      <linearGradient x1="317.2" gradientUnits="userSpaceOnUse" x2="462.8" y1="185.2" y2="250" id="linearGradient1" spreadMethod="reflect">
        <stop stop-opacity="1" stop-color="rgb(232,238,247)" offset="0%"/>
        <stop stop-opacity="1" stop-color="rgb(183,201,227)" offset="100%"/>
      </linearGradient>
      <linearGradient x1="385" gradientUnits="userSpaceOnUse" x2="465" y1="275" y2="315" id="linearGradient2" spreadMethod="reflect">
        <stop stop-opacity="1" stop-color="rgb(232,238,247)" offset="0%"/>
        <stop stop-opacity="1" stop-color="rgb(183,201,227)" offset="100%"/>
      </linearGradient>
      <linearGradient x1="480" gradientUnits="userSpaceOnUse" x2="560" y1="410" y2="450" id="linearGradient3" spreadMethod="reflect">
        <stop stop-opacity="1" stop-color="rgb(232,238,247)" offset="0%"/>
        <stop stop-opacity="1" stop-color="rgb(183,201,227)" offset="100%"/>
      </linearGradient>
      <linearGradient x1="298" gradientUnits="userSpaceOnUse" x2="400" y1="485" y2="525" id="linearGradient4" spreadMethod="reflect">
        <stop stop-opacity="1" stop-color="rgb(232,238,247)" offset="0%"/>
        <stop stop-opacity="1" stop-color="rgb(183,201,227)" offset="100%"/>
      </linearGradient>
      <linearGradient x1="447.5" gradientUnits="userSpaceOnUse" x2="527.5" y1="0" y2="40" id="linearGradient5" spreadMethod="reflect">
        <stop stop-opacity="1" stop-color="rgb(232,238,247)" offset="0%"/>
        <stop stop-opacity="1" stop-color="rgb(183,201,227)" offset="100%"/>
      </linearGradient>
      <linearGradient x1="142.4" gradientUnits="userSpaceOnUse" x2="297.6" y1="66.2" y2="115" id="linearGradient6" spreadMethod="reflect">
        <stop stop-opacity="1" stop-color="rgb(232,238,247)" offset="0%"/>
        <stop stop-opacity="1" stop-color="rgb(183,201,227)" offset="100%"/>
      </linearGradient>
      <linearGradient x1="180" gradientUnits="userSpaceOnUse" x2="260" y1="135" y2="175" id="linearGradient7" spreadMethod="reflect">
        <stop stop-opacity="1" stop-color="rgb(232,238,247)" offset="0%"/>
        <stop stop-opacity="1" stop-color="rgb(183,201,227)" offset="100%"/>
      </linearGradient>
      <linearGradient x1="575" gradientUnits="userSpaceOnUse" x2="655" y1="485" y2="525" id="linearGradient8" spreadMethod="reflect">
        <stop stop-opacity="1" stop-color="rgb(232,238,247)" offset="0%"/>
        <stop stop-opacity="1" stop-color="rgb(183,201,227)" offset="100%"/>
      </linearGradient>
      <linearGradient x1="225" gradientUnits="userSpaceOnUse" x2="305" y1="350" y2="390" id="linearGradient9" spreadMethod="reflect">
        <stop stop-opacity="1" stop-color="rgb(232,238,247)" offset="0%"/>
        <stop stop-opacity="1" stop-color="rgb(183,201,227)" offset="100%"/>
      </linearGradient>
      <linearGradient x1="490" gradientUnits="userSpaceOnUse" x2="570" y1="485" y2="525" id="linearGradient10" spreadMethod="reflect">
        <stop stop-opacity="1" stop-color="rgb(232,238,247)" offset="0%"/>
        <stop stop-opacity="1" stop-color="rgb(183,201,227)" offset="100%"/>
      </linearGradient>
      <linearGradient x1="10" gradientUnits="userSpaceOnUse" x2="90" y1="210" y2="250" id="linearGradient11" spreadMethod="reflect">
        <stop stop-opacity="1" stop-color="rgb(232,238,247)" offset="0%"/>
        <stop stop-opacity="1" stop-color="rgb(183,201,227)" offset="100%"/>
      </linearGradient>
      <linearGradient x1="469" gradientUnits="userSpaceOnUse" x2="571" y1="330" y2="402" id="linearGradient12" spreadMethod="reflect">
        <stop stop-opacity="1" stop-color="rgb(232,238,247)" offset="0%"/>
        <stop stop-opacity="1" stop-color="rgb(183,201,227)" offset="100%"/>
      </linearGradient>
      <linearGradient x1="405" gradientUnits="userSpaceOnUse" x2="485" y1="485" y2="525" id="linearGradient13" spreadMethod="reflect">
        <stop stop-opacity="1" stop-color="rgb(232,238,247)" offset="0%"/>
        <stop stop-opacity="1" stop-color="rgb(183,201,227)" offset="100%"/>
      </linearGradient>
      <linearGradient x1="265" gradientUnits="userSpaceOnUse" x2="345" y1="210" y2="250" id="linearGradient14" spreadMethod="reflect">
        <stop stop-opacity="1" stop-color="rgb(232,238,247)" offset="0%"/>
        <stop stop-opacity="1" stop-color="rgb(183,201,227)" offset="100%"/>
      </linearGradient>
      <linearGradient x1="575" gradientUnits="userSpaceOnUse" x2="655" y1="75" y2="115" id="linearGradient15" spreadMethod="reflect">
        <stop stop-opacity="1" stop-color="rgb(232,238,247)" offset="0%"/>
        <stop stop-opacity="1" stop-color="rgb(183,201,227)" offset="100%"/>
      </linearGradient>
      <linearGradient x1="395" gradientUnits="userSpaceOnUse" x2="475" y1="350" y2="390" id="linearGradient16" spreadMethod="reflect">
        <stop stop-opacity="1" stop-color="rgb(232,238,247)" offset="0%"/>
        <stop stop-opacity="1" stop-color="rgb(183,201,227)" offset="100%"/>
      </linearGradient>
      <linearGradient x1="376.6" gradientUnits="userSpaceOnUse" x2="513.4" y1="75" y2="139.8" id="linearGradient17" spreadMethod="reflect">
        <stop stop-opacity="1" stop-color="rgb(232,238,247)" offset="0%"/>
        <stop stop-opacity="1" stop-color="rgb(183,201,227)" offset="100%"/>
      </linearGradient>
      <linearGradient x1="310" gradientUnits="userSpaceOnUse" x2="390" y1="350" y2="390" id="linearGradient18" spreadMethod="reflect">
        <stop stop-opacity="1" stop-color="rgb(232,238,247)" offset="0%"/>
        <stop stop-opacity="1" stop-color="rgb(183,201,227)" offset="100%"/>
      </linearGradient>
      <linearGradient x1="180" gradientUnits="userSpaceOnUse" x2="260" y1="210" y2="250" id="linearGradient19" spreadMethod="reflect">
        <stop stop-opacity="1" stop-color="rgb(232,238,247)" offset="0%"/>
        <stop stop-opacity="1" stop-color="rgb(183,201,227)" offset="100%"/>
      </linearGradient>
      <linearGradient x1="95" gradientUnits="userSpaceOnUse" x2="175" y1="210" y2="250" id="linearGradient20" spreadMethod="reflect">
        <stop stop-opacity="1" stop-color="rgb(232,238,247)" offset="0%"/>
        <stop stop-opacity="1" stop-color="rgb(183,201,227)" offset="100%"/>
      </linearGradient>
      <linearGradient x1="490" gradientUnits="userSpaceOnUse" x2="570" y1="75" y2="115" id="linearGradient21" spreadMethod="reflect">
        <stop stop-opacity="1" stop-color="rgb(232,238,247)" offset="0%"/>
        <stop stop-opacity="1" stop-color="rgb(183,201,227)" offset="100%"/>
      </linearGradient>
      <clipPath clipPathUnits="userSpaceOnUse" id="clipPath1">
        <path d="M0 0 L675 0 L675 555 L0 555 L0 0 Z"/>
      </clipPath>
      <clipPath clipPathUnits="userSpaceOnUse" id="clipPath2">
        <path d="M-5 -15 L670 -15 L670 540 L-5 540 L-5 -15 Z"/>
      </clipPath>
    </defs>
    <g fill="white" text-rendering="geometricPrecision" shape-rendering="geometricPrecision" transform="translate(5,15)" stroke="white">
      <rect x="-5" width="675" height="555" y="-15" clip-path="url(#clipPath2)" stroke="none"/>
    </g>
    <g fill="url(#linearGradient1)" text-rendering="geometricPrecision" shape-rendering="geometricPrecision" transform="matrix(1,0,0,1,5,15)" stroke="url(#linearGradient1)">
      <path d="M390 185.2 L462.8 217.6 L390 250 L317.2 217.6 Z" stroke="none" clip-path="url(#clipPath2)"/>
    </g>
    <g text-rendering="geometricPrecision" stroke-miterlimit="1.45" shape-rendering="geometricPrecision" transform="matrix(1,0,0,1,5,15)" stroke-linecap="butt">
      <path fill="none" d="M390 185.2 L462.8 217.6 L390 250 L317.2 217.6 Z" clip-path="url(#clipPath2)"/>
      <text x="373.3271" xml:space="preserve" y="214.9633" clip-path="url(#clipPath2)" font-family="sans-serif" stroke="none">betrifft</text>
      <text x="347.6602" xml:space="preserve" y="229.6645" clip-path="url(#clipPath2)" font-family="sans-serif" stroke="none">(many-to-many)</text>
    </g>
    <g fill="url(#linearGradient2)" text-rendering="geometricPrecision" shape-rendering="geometricPrecision" transform="matrix(1,0,0,1,5,15)" stroke="url(#linearGradient2)">
      <path d="M385 275 L465 275 L465 315 L385 315 Z" stroke="none" clip-path="url(#clipPath2)"/>
    </g>
    <g text-rendering="geometricPrecision" stroke-miterlimit="1.45" shape-rendering="geometricPrecision" transform="matrix(1,0,0,1,5,15)" stroke-linecap="butt">
      <path fill="none" d="M385 275 L465 275 L465 315 L385 315 Z" clip-path="url(#clipPath2)"/>
      <text x="406.6602" xml:space="preserve" y="299.7139" clip-path="url(#clipPath2)" font-family="sans-serif" stroke="none">Device</text>
    </g>
    <g fill="url(#linearGradient3)" text-rendering="geometricPrecision" shape-rendering="geometricPrecision" transform="matrix(1,0,0,1,5,15)" stroke="url(#linearGradient3)">
      <path d="M480 410 L560 410 L560 450 L480 450 Z" stroke="none" clip-path="url(#clipPath2)"/>
    </g>
    <g text-rendering="geometricPrecision" stroke-miterlimit="1.45" shape-rendering="geometricPrecision" transform="matrix(1,0,0,1,5,15)" stroke-linecap="butt">
      <path fill="none" d="M480 410 L560 410 L560 450 L480 450 Z" clip-path="url(#clipPath2)"/>
      <text x="496.3223" xml:space="preserve" y="434.7139" clip-path="url(#clipPath2)" font-family="sans-serif" stroke="none">Software</text>
    </g>
    <g fill="url(#linearGradient4)" text-rendering="geometricPrecision" shape-rendering="geometricPrecision" transform="matrix(1,0,0,1,5,15)" stroke="url(#linearGradient4)">
      <ellipse rx="51" ry="20" clip-path="url(#clipPath2)" cx="349" cy="505" stroke="none"/>
    </g>
    <g text-rendering="geometricPrecision" stroke-miterlimit="1.45" shape-rendering="geometricPrecision" transform="matrix(1,0,0,1,5,15)" stroke-linecap="butt">
      <ellipse rx="51" fill="none" ry="20" clip-path="url(#clipPath2)" cx="349" cy="505"/>
      <text x="310.3135" xml:space="preserve" y="509.7139" clip-path="url(#clipPath2)" font-family="sans-serif" stroke="none">DownloadURL</text>
    </g>
    <g fill="url(#linearGradient5)" text-rendering="geometricPrecision" shape-rendering="geometricPrecision" transform="matrix(1,0,0,1,5,15)" stroke="url(#linearGradient5)">
      <path d="M447.5 0 L527.5 0 L527.5 40 L447.5 40 Z" stroke="none" clip-path="url(#clipPath2)"/>
    </g>
    <g text-rendering="geometricPrecision" stroke-miterlimit="1.45" shape-rendering="geometricPrecision" transform="matrix(1,0,0,1,5,15)" stroke-linecap="butt">
      <path fill="none" d="M447.5 0 L527.5 0 L527.5 40 L447.5 40 Z" clip-path="url(#clipPath2)"/>
      <text x="474.832" xml:space="preserve" y="24.7139" clip-path="url(#clipPath2)" font-family="sans-serif" stroke="none">User</text>
    </g>
    <g fill="url(#linearGradient6)" text-rendering="geometricPrecision" shape-rendering="geometricPrecision" transform="matrix(1,0,0,1,5,15)" stroke="url(#linearGradient6)">
      <path d="M220 66.2 L297.6 90.6 L220 115 L142.4 90.6 Z" stroke="none" clip-path="url(#clipPath2)"/>
    </g>
    <g text-rendering="geometricPrecision" stroke-miterlimit="1.45" shape-rendering="geometricPrecision" transform="matrix(1,0,0,1,5,15)" stroke-linecap="butt">
      <path fill="none" d="M220 66.2 L297.6 90.6 L220 115 L142.4 90.6 Z" clip-path="url(#clipPath2)"/>
      <text x="202.6592" xml:space="preserve" y="87.9633" clip-path="url(#clipPath2)" font-family="sans-serif" stroke="none">besitzt</text>
      <text x="182.3213" xml:space="preserve" y="102.6645" clip-path="url(#clipPath2)" font-family="sans-serif" stroke="none">(one-to-many)</text>
    </g>
    <g fill="url(#linearGradient7)" text-rendering="geometricPrecision" shape-rendering="geometricPrecision" transform="matrix(1,0,0,1,5,15)" stroke="url(#linearGradient7)">
      <path d="M180 135 L260 135 L260 175 L180 175 Z" stroke="none" clip-path="url(#clipPath2)"/>
    </g>
    <g text-rendering="geometricPrecision" stroke-miterlimit="1.45" shape-rendering="geometricPrecision" transform="matrix(1,0,0,1,5,15)" stroke-linecap="butt">
      <path fill="none" d="M180 135 L260 135 L260 175 L180 175 Z" clip-path="url(#clipPath2)"/>
      <text x="203.998" xml:space="preserve" y="159.7139" clip-path="url(#clipPath2)" font-family="sans-serif" stroke="none">Ticket</text>
    </g>
    <g fill="url(#linearGradient8)" text-rendering="geometricPrecision" shape-rendering="geometricPrecision" transform="matrix(1,0,0,1,5,15)" stroke="url(#linearGradient8)">
      <ellipse rx="40" ry="20" clip-path="url(#clipPath2)" cx="615" cy="505" stroke="none"/>
    </g>
    <g text-rendering="geometricPrecision" stroke-miterlimit="1.45" shape-rendering="geometricPrecision" transform="matrix(1,0,0,1,5,15)" stroke-linecap="butt">
      <ellipse rx="40" fill="none" ry="20" clip-path="url(#clipPath2)" cx="615" cy="505"/>
      <text x="594.6562" xml:space="preserve" y="509.7139" clip-path="url(#clipPath2)" font-family="sans-serif" stroke="none">Version</text>
    </g>
    <g fill="url(#linearGradient9)" text-rendering="geometricPrecision" shape-rendering="geometricPrecision" transform="matrix(1,0,0,1,5,15)" stroke="url(#linearGradient9)">
      <ellipse rx="40" ry="20" clip-path="url(#clipPath2)" cx="265" cy="370" stroke="none"/>
    </g>
    <g text-rendering="geometricPrecision" stroke-miterlimit="1.45" shape-rendering="geometricPrecision" transform="matrix(1,0,0,1,5,15)" stroke-linecap="butt">
      <ellipse rx="40" fill="none" ry="20" clip-path="url(#clipPath2)" cx="265" cy="370"/>
      <text x="245.6523" xml:space="preserve" y="374.7139" clip-path="url(#clipPath2)" font-family="sans-serif" stroke="none">Vendor</text>
    </g>
    <g fill="url(#linearGradient10)" text-rendering="geometricPrecision" shape-rendering="geometricPrecision" transform="matrix(1,0,0,1,5,15)" stroke="url(#linearGradient10)">
      <ellipse rx="40" ry="20" clip-path="url(#clipPath2)" cx="530" cy="505" stroke="none"/>
    </g>
    <g text-rendering="geometricPrecision" stroke-miterlimit="1.45" shape-rendering="geometricPrecision" transform="matrix(1,0,0,1,5,15)" stroke-linecap="butt">
      <ellipse rx="40" fill="none" ry="20" clip-path="url(#clipPath2)" cx="530" cy="505"/>
      <text x="513.9951" xml:space="preserve" y="509.7139" clip-path="url(#clipPath2)" font-family="sans-serif" stroke="none">Name</text>
    </g>
    <g fill="url(#linearGradient11)" text-rendering="geometricPrecision" shape-rendering="geometricPrecision" transform="matrix(1,0,0,1,5,15)" stroke="url(#linearGradient11)">
      <ellipse rx="40" ry="20" clip-path="url(#clipPath2)" cx="50" cy="230" stroke="none"/>
    </g>
    <g text-rendering="geometricPrecision" stroke-miterlimit="1.45" shape-rendering="geometricPrecision" transform="matrix(1,0,0,1,5,15)" stroke-linecap="butt">
      <ellipse rx="40" fill="none" ry="20" clip-path="url(#clipPath2)" cx="50" cy="230"/>
      <text x="17.3164" xml:space="preserve" y="234.7139" clip-path="url(#clipPath2)" font-family="sans-serif" stroke="none">SupportText</text>
    </g>
    <g fill="url(#linearGradient12)" text-rendering="geometricPrecision" shape-rendering="geometricPrecision" transform="matrix(1,0,0,1,5,15)" stroke="url(#linearGradient12)">
      <path d="M520 330 L571 366 L520 402 L469 366 Z" stroke="none" clip-path="url(#clipPath2)"/>
    </g>
    <g text-rendering="geometricPrecision" stroke-miterlimit="1.45" shape-rendering="geometricPrecision" transform="matrix(1,0,0,1,5,15)" stroke-linecap="butt">
      <path fill="none" d="M520 330 L571 366 L520 402 L469 366 Z" clip-path="url(#clipPath2)"/>
      <text x="501.9854" xml:space="preserve" y="363.3633" clip-path="url(#clipPath2)" font-family="sans-serif" stroke="none">enthält</text>
      <text x="482.3213" xml:space="preserve" y="378.0645" clip-path="url(#clipPath2)" font-family="sans-serif" stroke="none">(one-to-many)</text>
    </g>
    <g fill="url(#linearGradient13)" text-rendering="geometricPrecision" shape-rendering="geometricPrecision" transform="matrix(1,0,0,1,5,15)" stroke="url(#linearGradient13)">
      <ellipse rx="40" ry="20" clip-path="url(#clipPath2)" cx="445" cy="505" stroke="none"/>
    </g>
    <g text-rendering="geometricPrecision" stroke-miterlimit="1.45" shape-rendering="geometricPrecision" transform="matrix(1,0,0,1,5,15)" stroke-linecap="butt">
      <ellipse rx="40" fill="none" ry="20" clip-path="url(#clipPath2)" cx="445" cy="505"/>
      <text x="440.3301" xml:space="preserve" y="509.7139" clip-path="url(#clipPath2)" font-family="sans-serif" stroke="none">id</text>
    </g>
    <g fill="url(#linearGradient14)" text-rendering="geometricPrecision" shape-rendering="geometricPrecision" transform="matrix(1,0,0,1,5,15)" stroke="url(#linearGradient14)">
      <ellipse rx="40" ry="20" clip-path="url(#clipPath2)" cx="305" cy="230" stroke="none"/>
    </g>
    <g text-rendering="geometricPrecision" stroke-miterlimit="1.45" shape-rendering="geometricPrecision" transform="matrix(1,0,0,1,5,15)" stroke-linecap="butt">
      <ellipse rx="40" fill="none" ry="20" clip-path="url(#clipPath2)" cx="305" cy="230"/>
      <text x="300.3301" xml:space="preserve" y="234.7139" clip-path="url(#clipPath2)" font-family="sans-serif" stroke="none">id</text>
    </g>
    <g fill="url(#linearGradient15)" text-rendering="geometricPrecision" shape-rendering="geometricPrecision" transform="matrix(1,0,0,1,5,15)" stroke="url(#linearGradient15)">
      <ellipse rx="40" ry="20" clip-path="url(#clipPath2)" cx="615" cy="95" stroke="none"/>
    </g>
    <g text-rendering="geometricPrecision" stroke-miterlimit="1.45" shape-rendering="geometricPrecision" transform="matrix(1,0,0,1,5,15)" stroke-linecap="butt">
      <ellipse rx="40" fill="none" ry="20" clip-path="url(#clipPath2)" cx="615" cy="95"/>
      <text x="610.3301" xml:space="preserve" y="99.7139" clip-path="url(#clipPath2)" font-family="sans-serif" stroke="none">id</text>
    </g>
    <g fill="url(#linearGradient16)" text-rendering="geometricPrecision" shape-rendering="geometricPrecision" transform="matrix(1,0,0,1,5,15)" stroke="url(#linearGradient16)">
      <ellipse rx="40" ry="20" clip-path="url(#clipPath2)" cx="435" cy="370" stroke="none"/>
    </g>
    <g text-rendering="geometricPrecision" stroke-miterlimit="1.45" shape-rendering="geometricPrecision" transform="matrix(1,0,0,1,5,15)" stroke-linecap="butt">
      <ellipse rx="40" fill="none" ry="20" clip-path="url(#clipPath2)" cx="435" cy="370"/>
      <text x="406.6523" xml:space="preserve" y="374.7139" clip-path="url(#clipPath2)" font-family="sans-serif" stroke="none">InstallDate</text>
    </g>
    <g fill="url(#linearGradient17)" text-rendering="geometricPrecision" shape-rendering="geometricPrecision" transform="matrix(1,0,0,1,5,15)" stroke="url(#linearGradient17)">
      <path d="M445 75 L513.4 107.4 L445 139.8 L376.6 107.4 Z" stroke="none" clip-path="url(#clipPath2)"/>
    </g>
    <g text-rendering="geometricPrecision" stroke-miterlimit="1.45" shape-rendering="geometricPrecision" transform="matrix(1,0,0,1,5,15)" stroke-linecap="butt">
      <path fill="none" d="M445 75 L513.4 107.4 L445 139.8 L376.6 107.4 Z" clip-path="url(#clipPath2)"/>
      <text x="427.6592" xml:space="preserve" y="104.7633" clip-path="url(#clipPath2)" font-family="sans-serif" stroke="none">besitzt</text>
      <text x="407.3213" xml:space="preserve" y="119.4645" clip-path="url(#clipPath2)" font-family="sans-serif" stroke="none">(one-to-many)</text>
    </g>
    <g fill="url(#linearGradient18)" text-rendering="geometricPrecision" shape-rendering="geometricPrecision" transform="matrix(1,0,0,1,5,15)" stroke="url(#linearGradient18)">
      <ellipse rx="40" ry="20" clip-path="url(#clipPath2)" cx="350" cy="370" stroke="none"/>
    </g>
    <g text-rendering="geometricPrecision" stroke-miterlimit="1.45" shape-rendering="geometricPrecision" transform="matrix(1,0,0,1,5,15)" stroke-linecap="butt">
      <ellipse rx="40" fill="none" ry="20" clip-path="url(#clipPath2)" cx="350" cy="370"/>
      <text x="345.3301" xml:space="preserve" y="374.7139" clip-path="url(#clipPath2)" font-family="sans-serif" stroke="none">id</text>
    </g>
    <g fill="url(#linearGradient19)" text-rendering="geometricPrecision" shape-rendering="geometricPrecision" transform="matrix(1,0,0,1,5,15)" stroke="url(#linearGradient19)">
      <ellipse rx="40" ry="20" clip-path="url(#clipPath2)" cx="220" cy="230" stroke="none"/>
    </g>
    <g text-rendering="geometricPrecision" stroke-miterlimit="1.45" shape-rendering="geometricPrecision" transform="matrix(1,0,0,1,5,15)" stroke-linecap="butt">
      <ellipse rx="40" fill="none" ry="20" clip-path="url(#clipPath2)" cx="220" cy="230"/>
      <text x="189.9912" xml:space="preserve" y="234.7139" clip-path="url(#clipPath2)" font-family="sans-serif" stroke="none">DetailsText</text>
    </g>
    <g fill="url(#linearGradient20)" text-rendering="geometricPrecision" shape-rendering="geometricPrecision" transform="matrix(1,0,0,1,5,15)" stroke="url(#linearGradient20)">
      <ellipse rx="40" ry="20" clip-path="url(#clipPath2)" cx="135" cy="230" stroke="none"/>
    </g>
    <g text-rendering="geometricPrecision" stroke-miterlimit="1.45" shape-rendering="geometricPrecision" transform="matrix(1,0,0,1,5,15)" stroke-linecap="butt">
      <ellipse rx="40" fill="none" ry="20" clip-path="url(#clipPath2)" cx="135" cy="230"/>
      <text x="99.6475" xml:space="preserve" y="234.7139" clip-path="url(#clipPath2)" font-family="sans-serif" stroke="none">CreationDate</text>
    </g>
    <g fill="url(#linearGradient21)" text-rendering="geometricPrecision" shape-rendering="geometricPrecision" transform="matrix(1,0,0,1,5,15)" stroke="url(#linearGradient21)">
      <ellipse rx="40" ry="20" clip-path="url(#clipPath2)" cx="530" cy="95" stroke="none"/>
    </g>
    <g text-rendering="geometricPrecision" stroke-miterlimit="1.45" shape-rendering="geometricPrecision" transform="matrix(1,0,0,1,5,15)" stroke-linecap="butt">
      <ellipse rx="40" fill="none" ry="20" clip-path="url(#clipPath2)" cx="530" cy="95"/>
      <text x="513.9951" xml:space="preserve" y="99.7139" clip-path="url(#clipPath2)" font-family="sans-serif" stroke="none">Name</text>
    </g>
    <g text-rendering="geometricPrecision" stroke-miterlimit="1.45" shape-rendering="geometricPrecision" transform="matrix(1,0,0,1,5,15)" stroke-linecap="butt">
      <path fill="none" d="M390 250 L390 260 L405 260 L405 274.9707" clip-path="url(#clipPath2)"/>
    </g>
    <g text-rendering="geometricPrecision" stroke-miterlimit="1.45" shape-rendering="geometricPrecision" transform="matrix(1,0,0,1,5,15)" stroke-linecap="butt">
      <path fill="none" d="M490 450 L490 460 L349 460 L349 485" clip-path="url(#clipPath2)"/>
      <path fill="none" d="M457.5 40 L457.5 50 L220 50 L220 66.1684" clip-path="url(#clipPath2)"/>
      <path fill="none" d="M220 115.0391 L220 134.961" clip-path="url(#clipPath2)"/>
      <path fill="none" d="M252 175 L252 185 L390 185 L390 185.15" clip-path="url(#clipPath2)"/>
      <path fill="none" d="M550 450 L550 460 L615 460 L615 485" clip-path="url(#clipPath2)"/>
      <path fill="none" d="M395 315 L395 325 L265 325 L265 350" clip-path="url(#clipPath2)"/>
      <path fill="none" d="M530 450 L530 485" clip-path="url(#clipPath2)"/>
      <path fill="none" d="M188 175 L188 185 L50 185 L50 210" clip-path="url(#clipPath2)"/>
      <path fill="none" d="M455 315 L455 325 L520 325 L520 330" clip-path="url(#clipPath2)"/>
      <path fill="none" d="M520 402.0312 L520 409.9689" clip-path="url(#clipPath2)"/>
      <path fill="none" d="M510 450 L510 470 L445 470 L445 485" clip-path="url(#clipPath2)"/>
      <path fill="none" d="M236 175 L236 195 L305 195 L305 210" clip-path="url(#clipPath2)"/>
      <path fill="none" d="M517.5 40 L517.5 50 L615 50 L615 75" clip-path="url(#clipPath2)"/>
      <path fill="none" d="M435 315 L435 350" clip-path="url(#clipPath2)"/>
      <path fill="none" d="M477.5 40 L477.5 60 L445 60 L445 75" clip-path="url(#clipPath2)"/>
      <path fill="none" d="M445 139.833 L445 274.967" clip-path="url(#clipPath2)"/>
      <path fill="none" d="M415 315 L415 335 L350 335 L350 350" clip-path="url(#clipPath2)"/>
      <path fill="none" d="M220 175 L220 210" clip-path="url(#clipPath2)"/>
      <path fill="none" d="M204 175 L204 195 L135 195 L135 210" clip-path="url(#clipPath2)"/>
      <path fill="none" d="M497.5 40 L497.5 60 L530 60 L530 75" clip-path="url(#clipPath2)"/>
    </g>
  </g>
</svg>
